<svg class="rich-terminal" viewBox="0 0 1482 1148.0" xmlns="http://www.w3.org/2000/svg">
    <!-- Generated with Rich https://www.textualize.io -->
    <style>

    @font-face {
        font-family: "Fira Code";
        src: local("FiraCode-Regular"),
                url("https://cdnjs.cloudflare.com/ajax/libs/firacode/6.2.0/woff2/FiraCode-Regular.woff2") format("woff2"),
                url("https://cdnjs.cloudflare.com/ajax/libs/firacode/6.2.0/woff/FiraCode-Regular.woff") format("woff");
        font-style: normal;
        font-weight: 400;
    }
    @font-face {
        font-family: "Fira Code";
        src: local("FiraCode-Bold"),
                url("https://cdnjs.cloudflare.com/ajax/libs/firacode/6.2.0/woff2/FiraCode-Bold.woff2") format("woff2"),
                url("https://cdnjs.cloudflare.com/ajax/libs/firacode/6.2.0/woff/FiraCode-Bold.woff") format("woff");
        font-style: bold;
        font-weight: 700;
    }

    .terminal-730768044-matrix {
        font-family: Fira Code, monospace;
        font-size: 20px;
        line-height: 24.4px;
        font-variant-east-asian: full-width;
    }

    .terminal-730768044-title {
        font-size: 18px;
        font-weight: bold;
        font-family: arial;
    }

    .terminal-730768044-r1 { fill: #c5c8c6 }
.terminal-730768044-r2 { fill: #fafafa;font-weight: bold }
.terminal-730768044-r3 { fill: #353535 }
.terminal-730768044-r4 { fill: #e0e0e0 }
.terminal-730768044-r5 { fill: #afafaf;font-weight: bold }
.terminal-730768044-r6 { fill: #767676 }
.terminal-730768044-r7 { fill: #a1a1a1 }
.terminal-730768044-r8 { fill: #727272 }
.terminal-730768044-r9 { fill: #535353 }
.terminal-730768044-r10 { fill: #191919 }
.terminal-730768044-r11 { fill: #3f3f3f }
.terminal-730768044-r12 { fill: #a9a9a9 }
.terminal-730768044-r13 { fill: #2d2d2d }
.terminal-730768044-r14 { fill: #b0b0b0;font-weight: bold }
.terminal-730768044-r15 { fill: #515151 }
    </style>

    <defs>
    <clipPath id="terminal-730768044-clip-terminal">
      <rect x="0" y="0" width="1463.0" height="1097.0" />
    </clipPath>
    <clipPath id="terminal-730768044-line-0">
    <rect x="0" y="1.5" width="1464" height="24.65"/>
            </clipPath>
<clipPath id="terminal-730768044-line-1">
    <rect x="0" y="25.9" width="1464" height="24.65"/>
            </clipPath>
<clipPath id="terminal-730768044-line-2">
    <rect x="0" y="50.3" width="1464" height="24.65"/>
            </clipPath>
<clipPath id="terminal-730768044-line-3">
    <rect x="0" y="74.7" width="1464" height="24.65"/>
            </clipPath>
<clipPath id="terminal-730768044-line-4">
    <rect x="0" y="99.1" width="1464" height="24.65"/>
            </clipPath>
<clipPath id="terminal-730768044-line-5">
    <rect x="0" y="123.5" width="1464" height="24.65"/>
            </clipPath>
<clipPath id="terminal-730768044-line-6">
    <rect x="0" y="147.9" width="1464" height="24.65"/>
            </clipPath>
<clipPath id="terminal-730768044-line-7">
    <rect x="0" y="172.3" width="1464" height="24.65"/>
            </clipPath>
<clipPath id="terminal-730768044-line-8">
    <rect x="0" y="196.7" width="1464" height="24.65"/>
            </clipPath>
<clipPath id="terminal-730768044-line-9">
    <rect x="0" y="221.1" width="1464" height="24.65"/>
            </clipPath>
<clipPath id="terminal-730768044-line-10">
    <rect x="0" y="245.5" width="1464" height="24.65"/>
            </clipPath>
<clipPath id="terminal-730768044-line-11">
    <rect x="0" y="269.9" width="1464" height="24.65"/>
            </clipPath>
<clipPath id="terminal-730768044-line-12">
    <rect x="0" y="294.3" width="1464" height="24.65"/>
            </clipPath>
<clipPath id="terminal-730768044-line-13">
    <rect x="0" y="318.7" width="1464" height="24.65"/>
            </clipPath>
<clipPath id="terminal-730768044-line-14">
    <rect x="0" y="343.1" width="1464" height="24.65"/>
            </clipPath>
<clipPath id="terminal-730768044-line-15">
    <rect x="0" y="367.5" width="1464" height="24.65"/>
            </clipPath>
<clipPath id="terminal-730768044-line-16">
    <rect x="0" y="391.9" width="1464" height="24.65"/>
            </clipPath>
<clipPath id="terminal-730768044-line-17">
    <rect x="0" y="416.3" width="1464" height="24.65"/>
            </clipPath>
<clipPath id="terminal-730768044-line-18">
    <rect x="0" y="440.7" width="1464" height="24.65"/>
            </clipPath>
<clipPath id="terminal-730768044-line-19">
    <rect x="0" y="465.1" width="1464" height="24.65"/>
            </clipPath>
<clipPath id="terminal-730768044-line-20">
    <rect x="0" y="489.5" width="1464" height="24.65"/>
            </clipPath>
<clipPath id="terminal-730768044-line-21">
    <rect x="0" y="513.9" width="1464" height="24.65"/>
            </clipPath>
<clipPath id="terminal-730768044-line-22">
    <rect x="0" y="538.3" width="1464" height="24.65"/>
            </clipPath>
<clipPath id="terminal-730768044-line-23">
    <rect x="0" y="562.7" width="1464" height="24.65"/>
            </clipPath>
<clipPath id="terminal-730768044-line-24">
    <rect x="0" y="587.1" width="1464" height="24.65"/>
            </clipPath>
<clipPath id="terminal-730768044-line-25">
    <rect x="0" y="611.5" width="1464" height="24.65"/>
            </clipPath>
<clipPath id="terminal-730768044-line-26">
    <rect x="0" y="635.9" width="1464" height="24.65"/>
            </clipPath>
<clipPath id="terminal-730768044-line-27">
    <rect x="0" y="660.3" width="1464" height="24.65"/>
            </clipPath>
<clipPath id="terminal-730768044-line-28">
    <rect x="0" y="684.7" width="1464" height="24.65"/>
            </clipPath>
<clipPath id="terminal-730768044-line-29">
    <rect x="0" y="709.1" width="1464" height="24.65"/>
            </clipPath>
<clipPath id="terminal-730768044-line-30">
    <rect x="0" y="733.5" width="1464" height="24.65"/>
            </clipPath>
<clipPath id="terminal-730768044-line-31">
    <rect x="0" y="757.9" width="1464" height="24.65"/>
            </clipPath>
<clipPath id="terminal-730768044-line-32">
    <rect x="0" y="782.3" width="1464" height="24.65"/>
            </clipPath>
<clipPath id="terminal-730768044-line-33">
    <rect x="0" y="806.7" width="1464" height="24.65"/>
            </clipPath>
<clipPath id="terminal-730768044-line-34">
    <rect x="0" y="831.1" width="1464" height="24.65"/>
            </clipPath>
<clipPath id="terminal-730768044-line-35">
    <rect x="0" y="855.5" width="1464" height="24.65"/>
            </clipPath>
<clipPath id="terminal-730768044-line-36">
    <rect x="0" y="879.9" width="1464" height="24.65"/>
            </clipPath>
<clipPath id="terminal-730768044-line-37">
    <rect x="0" y="904.3" width="1464" height="24.65"/>
            </clipPath>
<clipPath id="terminal-730768044-line-38">
    <rect x="0" y="928.7" width="1464" height="24.65"/>
            </clipPath>
<clipPath id="terminal-730768044-line-39">
    <rect x="0" y="953.1" width="1464" height="24.65"/>
            </clipPath>
<clipPath id="terminal-730768044-line-40">
    <rect x="0" y="977.5" width="1464" height="24.65"/>
            </clipPath>
<clipPath id="terminal-730768044-line-41">
    <rect x="0" y="1001.9" width="1464" height="24.65"/>
            </clipPath>
<clipPath id="terminal-730768044-line-42">
    <rect x="0" y="1026.3" width="1464" height="24.65"/>
            </clipPath>
<clipPath id="terminal-730768044-line-43">
    <rect x="0" y="1050.7" width="1464" height="24.65"/>
            </clipPath>
    </defs>

    <rect fill="#292929" stroke="rgba(255,255,255,0.35)" stroke-width="1" x="1" y="1" width="1480" height="1146" rx="8"/><text class="terminal-730768044-title" fill="#c5c8c6" text-anchor="middle" x="740" y="27">logo-04</text>
            <g transform="translate(26,22)">
            <circle cx="0" cy="0" r="7" fill="#ff5f57"/>
            <circle cx="22" cy="0" r="7" fill="#febc2e"/>
            <circle cx="44" cy="0" r="7" fill="#28c840"/>
            </g>
        
    <g transform="translate(9, 41)" clip-path="url(#terminal-730768044-clip-terminal)">
    <rect fill="#767676" x="0" y="1.5" width="24.4" height="24.65" shape-rendering="crispEdges"/><rect fill="#767676" x="24.4" y="1.5" width="451.4" height="24.65" shape-rendering="crispEdges"/><rect fill="#767676" x="475.8" y="1.5" width="963.8" height="24.65" shape-rendering="crispEdges"/><rect fill="#767676" x="1439.6" y="1.5" width="24.4" height="24.65" shape-rendering="crispEdges"/><rect fill="#111111" x="0" y="25.9" width="1464" height="24.65" shape-rendering="crispEdges"/><rect fill="#111111" x="0" y="50.3" width="24.4" height="24.65" shape-rendering="crispEdges"/><rect fill="#111111" x="24.4" y="50.3" width="1415.2" height="24.65" shape-rendering="crispEdges"/><rect fill="#111111" x="1439.6" y="50.3" width="24.4" height="24.65" shape-rendering="crispEdges"/><rect fill="#111111" x="0" y="74.7" width="24.4" height="24.65" shape-rendering="crispEdges"/><rect fill="#111111" x="24.4" y="74.7" width="1415.2" height="24.65" shape-rendering="crispEdges"/><rect fill="#111111" x="1439.6" y="74.7" width="24.4" height="24.65" shape-rendering="crispEdges"/><rect fill="#111111" x="0" y="99.1" width="24.4" height="24.65" shape-rendering="crispEdges"/><rect fill="#111111" x="24.4" y="99.1" width="1415.2" height="24.65" shape-rendering="crispEdges"/><rect fill="#111111" x="1439.6" y="99.1" width="24.4" height="24.65" shape-rendering="crispEdges"/><rect fill="#111111" x="0" y="123.5" width="24.4" height="24.65" shape-rendering="crispEdges"/><rect fill="#111111" x="24.4" y="123.5" width="1415.2" height="24.65" shape-rendering="crispEdges"/><rect fill="#111111" x="1439.6" y="123.5" width="24.4" height="24.65" shape-rendering="crispEdges"/><rect fill="#111111" x="0" y="147.9" width="24.4" height="24.65" shape-rendering="crispEdges"/><rect fill="#111111" x="24.4" y="147.9" width="1415.2" height="24.65" shape-rendering="crispEdges"/><rect fill="#111111" x="1439.6" y="147.9" width="24.4" height="24.65" shape-rendering="crispEdges"/><rect fill="#111111" x="0" y="172.3" width="24.4" height="24.65" shape-rendering="crispEdges"/><rect fill="#111111" x="24.4" y="172.3" width="1415.2" height="24.65" shape-rendering="crispEdges"/><rect fill="#111111" x="1439.6" y="172.3" width="24.4" height="24.65" shape-rendering="crispEdges"/><rect fill="#111111" x="0" y="196.7" width="24.4" height="24.65" shape-rendering="crispEdges"/><rect fill="#111111" x="24.4" y="196.7" width="1415.2" height="24.65" shape-rendering="crispEdges"/><rect fill="#111111" x="1439.6" y="196.7" width="24.4" height="24.65" shape-rendering="crispEdges"/><rect fill="#111111" x="0" y="221.1" width="24.4" height="24.65" shape-rendering="crispEdges"/><rect fill="#111111" x="24.4" y="221.1" width="1415.2" height="24.65" shape-rendering="crispEdges"/><rect fill="#111111" x="1439.6" y="221.1" width="24.4" height="24.65" shape-rendering="crispEdges"/><rect fill="#111111" x="0" y="245.5" width="24.4" height="24.65" shape-rendering="crispEdges"/><rect fill="#111111" x="24.4" y="245.5" width="1415.2" height="24.65" shape-rendering="crispEdges"/><rect fill="#111111" x="1439.6" y="245.5" width="24.4" height="24.65" shape-rendering="crispEdges"/><rect fill="#111111" x="0" y="269.9" width="24.4" height="24.65" shape-rendering="crispEdges"/><rect fill="#111111" x="24.4" y="269.9" width="1415.2" height="24.65" shape-rendering="crispEdges"/><rect fill="#111111" x="1439.6" y="269.9" width="24.4" height="24.65" shape-rendering="crispEdges"/><rect fill="#111111" x="0" y="294.3" width="24.4" height="24.65" shape-rendering="crispEdges"/><rect fill="#111111" x="24.4" y="294.3" width="1415.2" height="24.65" shape-rendering="crispEdges"/><rect fill="#111111" x="1439.6" y="294.3" width="24.4" height="24.65" shape-rendering="crispEdges"/><rect fill="#111111" x="0" y="318.7" width="24.4" height="24.65" shape-rendering="crispEdges"/><rect fill="#111111" x="24.4" y="318.7" width="1415.2" height="24.65" shape-rendering="crispEdges"/><rect fill="#111111" x="1439.6" y="318.7" width="24.4" height="24.65" shape-rendering="crispEdges"/><rect fill="#111111" x="0" y="343.1" width="24.4" height="24.65" shape-rendering="crispEdges"/><rect fill="#111111" x="24.4" y="343.1" width="268.4" height="24.65" shape-rendering="crispEdges"/><rect fill="#181818" x="292.8" y="343.1" width="12.2" height="24.65" shape-rendering="crispEdges"/><rect fill="#181818" x="305" y="343.1" width="854" height="24.65" shape-rendering="crispEdges"/><rect fill="#181818" x="1159" y="343.1" width="12.2" height="24.65" shape-rendering="crispEdges"/><rect fill="#111111" x="1171.2" y="343.1" width="268.4" height="24.65" shape-rendering="crispEdges"/><rect fill="#111111" x="1439.6" y="343.1" width="24.4" height="24.65" shape-rendering="crispEdges"/><rect fill="#111111" x="0" y="367.5" width="24.4" height="24.65" shape-rendering="crispEdges"/><rect fill="#111111" x="24.4" y="367.5" width="268.4" height="24.65" shape-rendering="crispEdges"/><rect fill="#181818" x="292.8" y="367.5" width="12.2" height="24.65" shape-rendering="crispEdges"/><rect fill="#181818" x="305" y="367.5" width="854" height="24.65" shape-rendering="crispEdges"/><rect fill="#181818" x="1159" y="367.5" width="12.2" height="24.65" shape-rendering="crispEdges"/><rect fill="#111111" x="1171.2" y="367.5" width="268.4" height="24.65" shape-rendering="crispEdges"/><rect fill="#111111" x="1439.6" y="367.5" width="24.4" height="24.65" shape-rendering="crispEdges"/><rect fill="#111111" x="0" y="391.9" width="24.4" height="24.65" shape-rendering="crispEdges"/><rect fill="#111111" x="24.4" y="391.9" width="268.4" height="24.65" shape-rendering="crispEdges"/><rect fill="#181818" x="292.8" y="391.9" width="12.2" height="24.65" shape-rendering="crispEdges"/><rect fill="#181818" x="305" y="391.9" width="854" height="24.65" shape-rendering="crispEdges"/><rect fill="#181818" x="1159" y="391.9" width="12.2" height="24.65" shape-rendering="crispEdges"/><rect fill="#111111" x="1171.2" y="391.9" width="268.4" height="24.65" shape-rendering="crispEdges"/><rect fill="#111111" x="1439.6" y="391.9" width="24.4" height="24.65" shape-rendering="crispEdges"/><rect fill="#111111" x="0" y="416.3" width="24.4" height="24.65" shape-rendering="crispEdges"/><rect fill="#111111" x="24.4" y="416.3" width="268.4" height="24.65" shape-rendering="crispEdges"/><rect fill="#181818" x="292.8" y="416.3" width="12.2" height="24.65" shape-rendering="crispEdges"/><rect fill="#181818" x="305" y="416.3" width="48.8" height="24.65" shape-rendering="crispEdges"/><rect fill="#181818" x="353.8" y="416.3" width="109.8" height="24.65" shape-rendering="crispEdges"/><rect fill="#181818" x="463.6" y="416.3" width="536.8" height="24.65" shape-rendering="crispEdges"/><rect fill="#181818" x="1000.4" y="416.3" width="109.8" height="24.65" shape-rendering="crispEdges"/><rect fill="#181818" x="1110.2" y="416.3" width="48.8" height="24.65" shape-rendering="crispEdges"/><rect fill="#181818" x="1159" y="416.3" width="12.2" height="24.65" shape-rendering="crispEdges"/><rect fill="#111111" x="1171.2" y="416.3" width="268.4" height="24.65" shape-rendering="crispEdges"/><rect fill="#111111" x="1439.6" y="416.3" width="24.4" height="24.65" shape-rendering="crispEdges"/><rect fill="#111111" x="0" y="440.7" width="24.4" height="24.65" shape-rendering="crispEdges"/><rect fill="#111111" x="24.4" y="440.7" width="268.4" height="24.65" shape-rendering="crispEdges"/><rect fill="#181818" x="292.8" y="440.7" width="12.2" height="24.65" shape-rendering="crispEdges"/><rect fill="#181818" x="305" y="440.7" width="48.8" height="24.65" shape-rendering="crispEdges"/><rect fill="#181818" x="353.8" y="440.7" width="109.8" height="24.65" shape-rendering="crispEdges"/><rect fill="#181818" x="463.6" y="440.7" width="536.8" height="24.65" shape-rendering="crispEdges"/><rect fill="#181818" x="1000.4" y="440.7" width="109.8" height="24.65" shape-rendering="crispEdges"/><rect fill="#181818" x="1110.2" y="440.7" width="48.8" height="24.65" shape-rendering="crispEdges"/><rect fill="#181818" x="1159" y="440.7" width="12.2" height="24.65" shape-rendering="crispEdges"/><rect fill="#111111" x="1171.2" y="440.7" width="268.4" height="24.65" shape-rendering="crispEdges"/><rect fill="#111111" x="1439.6" y="440.7" width="24.4" height="24.65" shape-rendering="crispEdges"/><rect fill="#111111" x="0" y="465.1" width="24.4" height="24.65" shape-rendering="crispEdges"/><rect fill="#111111" x="24.4" y="465.1" width="268.4" height="24.65" shape-rendering="crispEdges"/><rect fill="#181818" x="292.8" y="465.1" width="12.2" height="24.65" shape-rendering="crispEdges"/><rect fill="#181818" x="305" y="465.1" width="48.8" height="24.65" shape-rendering="crispEdges"/><rect fill="#181818" x="353.8" y="465.1" width="756.4" height="24.65" shape-rendering="crispEdges"/><rect fill="#181818" x="1110.2" y="465.1" width="48.8" height="24.65" shape-rendering="crispEdges"/><rect fill="#181818" x="1159" y="465.1" width="12.2" height="24.65" shape-rendering="crispEdges"/><rect fill="#111111" x="1171.2" y="465.1" width="268.4" height="24.65" shape-rendering="crispEdges"/><rect fill="#111111" x="1439.6" y="465.1" width="24.4" height="24.65" shape-rendering="crispEdges"/><rect fill="#111111" x="0" y="489.5" width="24.4" height="24.65" shape-rendering="crispEdges"/><rect fill="#111111" x="24.4" y="489.5" width="268.4" height="24.65" shape-rendering="crispEdges"/><rect fill="#181818" x="292.8" y="489.5" width="12.2" height="24.65" shape-rendering="crispEdges"/><rect fill="#181818" x="305" y="489.5" width="48.8" height="24.65" shape-rendering="crispEdges"/><rect fill="#181818" x="353.8" y="489.5" width="73.2" height="24.65" shape-rendering="crispEdges"/><rect fill="#181818" x="427" y="489.5" width="610" height="24.65" shape-rendering="crispEdges"/><rect fill="#181818" x="1037" y="489.5" width="73.2" height="24.65" shape-rendering="crispEdges"/><rect fill="#181818" x="1110.2" y="489.5" width="48.8" height="24.65" shape-rendering="crispEdges"/><rect fill="#181818" x="1159" y="489.5" width="12.2" height="24.65" shape-rendering="crispEdges"/><rect fill="#111111" x="1171.2" y="489.5" width="268.4" height="24.65" shape-rendering="crispEdges"/><rect fill="#111111" x="1439.6" y="489.5" width="24.4" height="24.65" shape-rendering="crispEdges"/><rect fill="#111111" x="0" y="513.9" width="24.4" height="24.65" shape-rendering="crispEdges"/><rect fill="#111111" x="24.4" y="513.9" width="268.4" height="24.65" shape-rendering="crispEdges"/><rect fill="#181818" x="292.8" y="513.9" width="12.2" height="24.65" shape-rendering="crispEdges"/><rect fill="#181818" x="305" y="513.9" width="48.8" height="24.65" shape-rendering="crispEdges"/><rect fill="#181818" x="353.8" y="513.9" width="756.4" height="24.65" shape-rendering="crispEdges"/><rect fill="#181818" x="1110.2" y="513.9" width="48.8" height="24.65" shape-rendering="crispEdges"/><rect fill="#181818" x="1159" y="513.9" width="12.2" height="24.65" shape-rendering="crispEdges"/><rect fill="#111111" x="1171.2" y="513.9" width="268.4" height="24.65" shape-rendering="crispEdges"/><rect fill="#111111" x="1439.6" y="513.9" width="24.4" height="24.65" shape-rendering="crispEdges"/><rect fill="#111111" x="0" y="538.3" width="24.4" height="24.65" shape-rendering="crispEdges"/><rect fill="#111111" x="24.4" y="538.3" width="268.4" height="24.65" shape-rendering="crispEdges"/><rect fill="#181818" x="292.8" y="538.3" width="12.2" height="24.65" shape-rendering="crispEdges"/><rect fill="#181818" x="305" y="538.3" width="48.8" height="24.65" shape-rendering="crispEdges"/><rect fill="#181818" x="353.8" y="538.3" width="183" height="24.65" shape-rendering="crispEdges"/><rect fill="#181818" x="536.8" y="538.3" width="97.6" height="24.65" shape-rendering="crispEdges"/><rect fill="#181818" x="634.4" y="538.3" width="61" height="24.65" shape-rendering="crispEdges"/><rect fill="#181818" x="695.4" y="538.3" width="85.4" height="24.65" shape-rendering="crispEdges"/><rect fill="#181818" x="780.8" y="538.3" width="61" height="24.65" shape-rendering="crispEdges"/><rect fill="#181818" x="841.8" y="538.3" width="73.2" height="24.65" shape-rendering="crispEdges"/><rect fill="#181818" x="915" y="538.3" width="195.2" height="24.65" shape-rendering="crispEdges"/><rect fill="#181818" x="1110.2" y="538.3" width="48.8" height="24.65" shape-rendering="crispEdges"/><rect fill="#181818" x="1159" y="538.3" width="12.2" height="24.65" shape-rendering="crispEdges"/><rect fill="#111111" x="1171.2" y="538.3" width="268.4" height="24.65" shape-rendering="crispEdges"/><rect fill="#111111" x="1439.6" y="538.3" width="24.4" height="24.65" shape-rendering="crispEdges"/><rect fill="#111111" x="0" y="562.7" width="24.4" height="24.65" shape-rendering="crispEdges"/><rect fill="#111111" x="24.4" y="562.7" width="268.4" height="24.65" shape-rendering="crispEdges"/><rect fill="#181818" x="292.8" y="562.7" width="12.2" height="24.65" shape-rendering="crispEdges"/><rect fill="#181818" x="305" y="562.7" width="854" height="24.65" shape-rendering="crispEdges"/><rect fill="#181818" x="1159" y="562.7" width="12.2" height="24.65" shape-rendering="crispEdges"/><rect fill="#111111" x="1171.2" y="562.7" width="268.4" height="24.65" shape-rendering="crispEdges"/><rect fill="#111111" x="1439.6" y="562.7" width="24.4" height="24.65" shape-rendering="crispEdges"/><rect fill="#111111" x="0" y="587.1" width="24.4" height="24.65" shape-rendering="crispEdges"/><rect fill="#111111" x="24.4" y="587.1" width="268.4" height="24.65" shape-rendering="crispEdges"/><rect fill="#181818" x="292.8" y="587.1" width="12.2" height="24.65" shape-rendering="crispEdges"/><rect fill="#181818" x="305" y="587.1" width="854" height="24.65" shape-rendering="crispEdges"/><rect fill="#181818" x="1159" y="587.1" width="12.2" height="24.65" shape-rendering="crispEdges"/><rect fill="#111111" x="1171.2" y="587.1" width="268.4" height="24.65" shape-rendering="crispEdges"/><rect fill="#111111" x="1439.6" y="587.1" width="24.4" height="24.65" shape-rendering="crispEdges"/><rect fill="#111111" x="0" y="611.5" width="24.4" height="24.65" shape-rendering="crispEdges"/><rect fill="#111111" x="24.4" y="611.5" width="268.4" height="24.65" shape-rendering="crispEdges"/><rect fill="#181818" x="292.8" y="611.5" width="12.2" height="24.65" shape-rendering="crispEdges"/><rect fill="#181818" x="305" y="611.5" width="854" height="24.65" shape-rendering="crispEdges"/><rect fill="#181818" x="1159" y="611.5" width="12.2" height="24.65" shape-rendering="crispEdges"/><rect fill="#111111" x="1171.2" y="611.5" width="268.4" height="24.65" shape-rendering="crispEdges"/><rect fill="#111111" x="1439.6" y="611.5" width="24.4" height="24.65" shape-rendering="crispEdges"/><rect fill="#111111" x="0" y="635.9" width="24.4" height="24.65" shape-rendering="crispEdges"/><rect fill="#111111" x="24.4" y="635.9" width="1415.2" height="24.65" shape-rendering="crispEdges"/><rect fill="#111111" x="1439.6" y="635.9" width="24.4" height="24.65" shape-rendering="crispEdges"/><rect fill="#111111" x="0" y="660.3" width="24.4" height="24.65" shape-rendering="crispEdges"/><rect fill="#111111" x="24.4" y="660.3" width="1415.2" height="24.65" shape-rendering="crispEdges"/><rect fill="#111111" x="1439.6" y="660.3" width="24.4" height="24.65" shape-rendering="crispEdges"/><rect fill="#111111" x="0" y="684.7" width="24.4" height="24.65" shape-rendering="crispEdges"/><rect fill="#111111" x="24.4" y="684.7" width="268.4" height="24.65" shape-rendering="crispEdges"/><rect fill="#111111" x="292.8" y="684.7" width="73.2" height="24.65" shape-rendering="crispEdges"/><rect fill="#111111" x="366" y="684.7" width="12.2" height="24.65" shape-rendering="crispEdges"/><rect fill="#111111" x="378.2" y="684.7" width="158.6" height="24.65" shape-rendering="crispEdges"/><rect fill="#111111" x="536.8" y="684.7" width="12.2" height="24.65" shape-rendering="crispEdges"/><rect fill="#111111" x="549" y="684.7" width="97.6" height="24.65" shape-rendering="crispEdges"/><rect fill="#111111" x="646.6" y="684.7" width="793" height="24.65" shape-rendering="crispEdges"/><rect fill="#111111" x="1439.6" y="684.7" width="24.4" height="24.65" shape-rendering="crispEdges"/><rect fill="#111111" x="0" y="709.1" width="24.4" height="24.65" shape-rendering="crispEdges"/><rect fill="#111111" x="24.4" y="709.1" width="1415.2" height="24.65" shape-rendering="crispEdges"/><rect fill="#111111" x="1439.6" y="709.1" width="24.4" height="24.65" shape-rendering="crispEdges"/><rect fill="#111111" x="0" y="733.5" width="24.4" height="24.65" shape-rendering="crispEdges"/><rect fill="#111111" x="24.4" y="733.5" width="1415.2" height="24.65" shape-rendering="crispEdges"/><rect fill="#111111" x="1439.6" y="733.5" width="24.4" height="24.65" shape-rendering="crispEdges"/><rect fill="#111111" x="0" y="757.9" width="24.4" height="24.65" shape-rendering="crispEdges"/><rect fill="#111111" x="24.4" y="757.9" width="1415.2" height="24.65" shape-rendering="crispEdges"/><rect fill="#111111" x="1439.6" y="757.9" width="24.4" height="24.65" shape-rendering="crispEdges"/><rect fill="#111111" x="0" y="782.3" width="24.4" height="24.65" shape-rendering="crispEdges"/><rect fill="#111111" x="24.4" y="782.3" width="1415.2" height="24.65" shape-rendering="crispEdges"/><rect fill="#111111" x="1439.6" y="782.3" width="24.4" height="24.65" shape-rendering="crispEdges"/><rect fill="#111111" x="0" y="806.7" width="24.4" height="24.65" shape-rendering="crispEdges"/><rect fill="#111111" x="24.4" y="806.7" width="1415.2" height="24.65" shape-rendering="crispEdges"/><rect fill="#111111" x="1439.6" y="806.7" width="24.4" height="24.65" shape-rendering="crispEdges"/><rect fill="#111111" x="0" y="831.1" width="24.4" height="24.65" shape-rendering="crispEdges"/><rect fill="#111111" x="24.4" y="831.1" width="1415.2" height="24.65" shape-rendering="crispEdges"/><rect fill="#111111" x="1439.6" y="831.1" width="24.4" height="24.65" shape-rendering="crispEdges"/><rect fill="#111111" x="0" y="855.5" width="24.4" height="24.65" shape-rendering="crispEdges"/><rect fill="#111111" x="24.4" y="855.5" width="1415.2" height="24.65" shape-rendering="crispEdges"/><rect fill="#111111" x="1439.6" y="855.5" width="24.4" height="24.65" shape-rendering="crispEdges"/><rect fill="#111111" x="0" y="879.9" width="24.4" height="24.65" shape-rendering="crispEdges"/><rect fill="#111111" x="24.4" y="879.9" width="1415.2" height="24.65" shape-rendering="crispEdges"/><rect fill="#111111" x="1439.6" y="879.9" width="24.4" height="24.65" shape-rendering="crispEdges"/><rect fill="#111111" x="0" y="904.3" width="24.4" height="24.65" shape-rendering="crispEdges"/><rect fill="#111111" x="24.4" y="904.3" width="1415.2" height="24.65" shape-rendering="crispEdges"/><rect fill="#111111" x="1439.6" y="904.3" width="24.4" height="24.65" shape-rendering="crispEdges"/><rect fill="#111111" x="0" y="928.7" width="24.4" height="24.65" shape-rendering="crispEdges"/><rect fill="#111111" x="24.4" y="928.7" width="1415.2" height="24.65" shape-rendering="crispEdges"/><rect fill="#111111" x="1439.6" y="928.7" width="24.4" height="24.65" shape-rendering="crispEdges"/><rect fill="#111111" x="0" y="953.1" width="24.4" height="24.65" shape-rendering="crispEdges"/><rect fill="#111111" x="24.4" y="953.1" width="1415.2" height="24.65" shape-rendering="crispEdges"/><rect fill="#111111" x="1439.6" y="953.1" width="24.4" height="24.65" shape-rendering="crispEdges"/><rect fill="#111111" x="0" y="977.5" width="24.4" height="24.65" shape-rendering="crispEdges"/><rect fill="#111111" x="24.4" y="977.5" width="1415.2" height="24.65" shape-rendering="crispEdges"/><rect fill="#111111" x="1439.6" y="977.5" width="24.4" height="24.65" shape-rendering="crispEdges"/><rect fill="#111111" x="0" y="1001.9" width="1464" height="24.65" shape-rendering="crispEdges"/><rect fill="#161616" x="0" y="1026.3" width="1464" height="24.65" shape-rendering="crispEdges"/><rect fill="#161616" x="0" y="1050.7" width="24.4" height="24.65" shape-rendering="crispEdges"/><rect fill="#161616" x="24.4" y="1050.7" width="12.2" height="24.65" shape-rendering="crispEdges"/><rect fill="#181818" x="36.6" y="1050.7" width="146.4" height="24.65" shape-rendering="crispEdges"/><rect fill="#161616" x="183" y="1050.7" width="12.2" height="24.65" shape-rendering="crispEdges"/><rect fill="#181818" x="195.2" y="1050.7" width="146.4" height="24.65" shape-rendering="crispEdges"/><rect fill="#161616" x="341.6" y="1050.7" width="12.2" height="24.65" shape-rendering="crispEdges"/><rect fill="#181818" x="353.8" y="1050.7" width="146.4" height="24.65" shape-rendering="crispEdges"/><rect fill="#161616" x="500.2" y="1050.7" width="12.2" height="24.65" shape-rendering="crispEdges"/><rect fill="#181818" x="512.4" y="1050.7" width="146.4" height="24.65" shape-rendering="crispEdges"/><rect fill="#161616" x="658.8" y="1050.7" width="12.2" height="24.65" shape-rendering="crispEdges"/><rect fill="#181818" x="671" y="1050.7" width="24.4" height="24.65" shape-rendering="crispEdges"/><rect fill="#161616" x="695.4" y="1050.7" width="24.4" height="24.65" shape-rendering="crispEdges"/><rect fill="#161616" x="719.8" y="1050.7" width="12.2" height="24.65" shape-rendering="crispEdges"/><rect fill="#161616" x="732" y="1050.7" width="24.4" height="24.65" shape-rendering="crispEdges"/><rect fill="#161616" x="756.4" y="1050.7" width="12.2" height="24.65" shape-rendering="crispEdges"/><rect fill="#767676" x="768.6" y="1050.7" width="146.4" height="24.65" shape-rendering="crispEdges"/><rect fill="#161616" x="915" y="1050.7" width="12.2" height="24.65" shape-rendering="crispEdges"/><rect fill="#1e1e1e" x="927.2" y="1050.7" width="146.4" height="24.65" shape-rendering="crispEdges"/><rect fill="#161616" x="1073.6" y="1050.7" width="366" height="24.65" shape-rendering="crispEdges"/><rect fill="#161616" x="1439.6" y="1050.7" width="24.4" height="24.65" shape-rendering="crispEdges"/><rect fill="#2d2d2d" x="0" y="1075.1" width="24.4" height="24.65" shape-rendering="crispEdges"/><rect fill="#2d2d2d" x="24.4" y="1075.1" width="12.2" height="24.65" shape-rendering="crispEdges"/><rect fill="#2d2d2d" x="36.6" y="1075.1" width="97.6" height="24.65" shape-rendering="crispEdges"/><rect fill="#2d2d2d" x="134.2" y="1075.1" width="36.6" height="24.65" shape-rendering="crispEdges"/><rect fill="#2d2d2d" x="170.8" y="1075.1" width="12.2" height="24.65" shape-rendering="crispEdges"/><rect fill="#2d2d2d" x="183" y="1075.1" width="12.2" height="24.65" shape-rendering="crispEdges"/><rect fill="#2d2d2d" x="195.2" y="1075.1" width="36.6" height="24.65" shape-rendering="crispEdges"/><rect fill="#2d2d2d" x="231.8" y="1075.1" width="36.6" height="24.65" shape-rendering="crispEdges"/><rect fill="#2d2d2d" x="268.4" y="1075.1" width="73.2" height="24.65" shape-rendering="crispEdges"/><rect fill="#2d2d2d" x="341.6" y="1075.1" width="12.2" height="24.65" shape-rendering="crispEdges"/><rect fill="#2d2d2d" x="353.8" y="1075.1" width="36.6" height="24.65" shape-rendering="crispEdges"/><rect fill="#2d2d2d" x="390.4" y="1075.1" width="97.6" height="24.65" shape-rendering="crispEdges"/><rect fill="#2d2d2d" x="488" y="1075.1" width="12.2" height="24.65" shape-rendering="crispEdges"/><rect fill="#2d2d2d" x="500.2" y="1075.1" width="12.2" height="24.65" shape-rendering="crispEdges"/><rect fill="#2d2d2d" x="512.4" y="1075.1" width="12.2" height="24.65" shape-rendering="crispEdges"/><rect fill="#2d2d2d" x="524.6" y="1075.1" width="61" height="24.65" shape-rendering="crispEdges"/><rect fill="#2d2d2d" x="585.6" y="1075.1" width="36.6" height="24.65" shape-rendering="crispEdges"/><rect fill="#2d2d2d" x="622.2" y="1075.1" width="36.6" height="24.65" shape-rendering="crispEdges"/><rect fill="#2d2d2d" x="658.8" y="1075.1" width="12.2" height="24.65" shape-rendering="crispEdges"/><rect fill="#2d2d2d" x="671" y="1075.1" width="12.2" height="24.65" shape-rendering="crispEdges"/><rect fill="#2d2d2d" x="683.2" y="1075.1" width="12.2" height="24.65" shape-rendering="crispEdges"/><rect fill="#2d2d2d" x="695.4" y="1075.1" width="24.4" height="24.65" shape-rendering="crispEdges"/><rect fill="#2d2d2d" x="719.8" y="1075.1" width="36.6" height="24.65" shape-rendering="crispEdges"/><rect fill="#2d2d2d" x="756.4" y="1075.1" width="12.2" height="24.65" shape-rendering="crispEdges"/><rect fill="#2d2d2d" x="768.6" y="1075.1" width="12.2" height="24.65" shape-rendering="crispEdges"/><rect fill="#2d2d2d" x="780.8" y="1075.1" width="134.2" height="24.65" shape-rendering="crispEdges"/><rect fill="#2d2d2d" x="915" y="1075.1" width="12.2" height="24.65" shape-rendering="crispEdges"/><rect fill="#2d2d2d" x="927.2" y="1075.1" width="146.4" height="24.65" shape-rendering="crispEdges"/><rect fill="#2d2d2d" x="1073.6" y="1075.1" width="244" height="24.65" shape-rendering="crispEdges"/><rect fill="#2d2d2d" x="1317.6" y="1075.1" width="12.2" height="24.65" shape-rendering="crispEdges"/><rect fill="#2d2d2d" x="1329.8" y="1075.1" width="24.4" height="24.65" shape-rendering="crispEdges"/><rect fill="#2d2d2d" x="1354.2" y="1075.1" width="85.4" height="24.65" shape-rendering="crispEdges"/><rect fill="#2d2d2d" x="1439.6" y="1075.1" width="12.2" height="24.65" shape-rendering="crispEdges"/><rect fill="#2d2d2d" x="1451.8" y="1075.1" width="12.2" height="24.65" shape-rendering="crispEdges"/>
    <g class="terminal-730768044-matrix">
    <text class="terminal-730768044-r2" x="24.4" y="20" textLength="451.4" clip-path="url(#terminal-730768044-line-0)">&#160;Ready&#160;—&#160;open&#160;a&#160;conversation&#160;to&#160;begin</text><text class="terminal-730768044-r1" x="1464" y="20" textLength="12.2" clip-path="url(#terminal-730768044-line-0)">
</text><text class="terminal-730768044-r1" x="1464" y="44.4" textLength="12.2" clip-path="url(#terminal-730768044-line-1)">
</text><text class="terminal-730768044-r1" x="1464" y="68.8" textLength="12.2" clip-path="url(#terminal-730768044-line-2)">
</text><text class="terminal-730768044-r1" x="1464" y="93.2" textLength="12.2" clip-path="url(#terminal-730768044-line-3)">
</text><text class="terminal-730768044-r1" x="1464" y="117.6" textLength="12.2" clip-path="url(#terminal-730768044-line-4)">
</text><text class="terminal-730768044-r1" x="1464" y="142" textLength="12.2" clip-path="url(#terminal-730768044-line-5)">
</text><text class="terminal-730768044-r1" x="1464" y="166.4" textLength="12.2" clip-path="url(#terminal-730768044-line-6)">
</text><text class="terminal-730768044-r1" x="1464" y="190.8" textLength="12.2" clip-path="url(#terminal-730768044-line-7)">
</text><text class="terminal-730768044-r1" x="1464" y="215.2" textLength="12.2" clip-path="url(#terminal-730768044-line-8)">
</text><text class="terminal-730768044-r1" x="1464" y="239.6" textLength="12.2" clip-path="url(#terminal-730768044-line-9)">
</text><text class="terminal-730768044-r1" x="1464" y="264" textLength="12.2" clip-path="url(#terminal-730768044-line-10)">
</text><text class="terminal-730768044-r1" x="1464" y="288.4" textLength="12.2" clip-path="url(#terminal-730768044-line-11)">
</text><text class="terminal-730768044-r1" x="1464" y="312.8" textLength="12.2" clip-path="url(#terminal-730768044-line-12)">
</text><text class="terminal-730768044-r1" x="1464" y="337.2" textLength="12.2" clip-path="url(#terminal-730768044-line-13)">
</text><text class="terminal-730768044-r3" x="292.8" y="361.6" textLength="12.2" clip-path="url(#terminal-730768044-line-14)">╭</text><text class="terminal-730768044-r3" x="305" y="361.6" textLength="854" clip-path="url(#terminal-730768044-line-14)">──────────────────────────────────────────────────────────────────────</text><text class="terminal-730768044-r3" x="1159" y="361.6" textLength="12.2" clip-path="url(#terminal-730768044-line-14)">╮</text><text class="terminal-730768044-r1" x="1464" y="361.6" textLength="12.2" clip-path="url(#terminal-730768044-line-14)">
</text><text class="terminal-730768044-r3" x="292.8" y="386" textLength="12.2" clip-path="url(#terminal-730768044-line-15)">│</text><text class="terminal-730768044-r3" x="1159" y="386" textLength="12.2" clip-path="url(#terminal-730768044-line-15)">│</text><text class="terminal-730768044-r1" x="1464" y="386" textLength="12.2" clip-path="url(#terminal-730768044-line-15)">
</text><text class="terminal-730768044-r3" x="292.8" y="410.4" textLength="12.2" clip-path="url(#terminal-730768044-line-16)">│</text><text class="terminal-730768044-r3" x="1159" y="410.4" textLength="12.2" clip-path="url(#terminal-730768044-line-16)">│</text><text class="terminal-730768044-r1" x="1464" y="410.4" textLength="12.2" clip-path="url(#terminal-730768044-line-16)">
</text><text class="terminal-730768044-r3" x="292.8" y="434.8" textLength="12.2" clip-path="url(#terminal-730768044-line-17)">│</text><text class="terminal-730768044-r5" x="463.6" y="434.8" textLength="536.8" clip-path="url(#terminal-730768044-line-17)">&#160;&#160;&#160;&#160;&#160;&#160;&#160;&#160;&#160;&#160;&#160;&#160;&#160;&#160;AI&#160;·&#160;CONTINUATOR&#160;&#160;&#160;&#160;&#160;&#160;&#160;&#160;&#160;&#160;&#160;&#160;&#160;&#160;</text><text class="terminal-730768044-r3" x="1159" y="434.8" textLength="12.2" clip-path="url(#terminal-730768044-line-17)">│</text><text class="terminal-730768044-r1" x="1464" y="434.8" textLength="12.2" clip-path="url(#terminal-730768044-line-17)">
</text><text class="terminal-730768044-r3" x="292.8" y="459.2" textLength="12.2" clip-path="url(#terminal-730768044-line-18)">│</text><text class="terminal-730768044-r6" x="463.6" y="459.2" textLength="536.8" clip-path="url(#terminal-730768044-line-18)">&#160;&#160;&#160;&#160;&#160;&#160;&#160;──────────────────────────────&#160;&#160;&#160;&#160;&#160;&#160;&#160;</text><text class="terminal-730768044-r3" x="1159" y="459.2" textLength="12.2" clip-path="url(#terminal-730768044-line-18)">│</text><text class="terminal-730768044-r1" x="1464" y="459.2" textLength="12.2" clip-path="url(#terminal-730768044-line-18)">
</text><text class="terminal-730768044-r3" x="292.8" y="483.6" textLength="12.2" clip-path="url(#terminal-730768044-line-19)">│</text><text class="terminal-730768044-r3" x="1159" y="483.6" textLength="12.2" clip-path="url(#terminal-730768044-line-19)">│</text><text class="terminal-730768044-r1" x="1464" y="483.6" textLength="12.2" clip-path="url(#terminal-730768044-line-19)">
</text><text class="terminal-730768044-r3" x="292.8" y="508" textLength="12.2" clip-path="url(#terminal-730768044-line-20)">│</text><text class="terminal-730768044-r7" x="427" y="508" textLength="610" clip-path="url(#terminal-730768044-line-20)">Turn&#160;conversations&#160;into&#160;AI&#160;continuation&#160;briefings.</text><text class="terminal-730768044-r3" x="1159" y="508" textLength="12.2" clip-path="url(#terminal-730768044-line-20)">│</text><text class="terminal-730768044-r1" x="1464" y="508" textLength="12.2" clip-path="url(#terminal-730768044-line-20)">
</text><text class="terminal-730768044-r3" x="292.8" y="532.4" textLength="12.2" clip-path="url(#terminal-730768044-line-21)">│</text><text class="terminal-730768044-r3" x="1159" y="532.4" textLength="12.2" clip-path="url(#terminal-730768044-line-21)">│</text><text class="terminal-730768044-r1" x="1464" y="532.4" textLength="12.2" clip-path="url(#terminal-730768044-line-21)">
</text><text class="terminal-730768044-r3" x="292.8" y="556.8" textLength="12.2" clip-path="url(#terminal-730768044-line-22)">│</text><text class="terminal-730768044-r8" x="536.8" y="556.8" textLength="97.6" clip-path="url(#terminal-730768044-line-22)">Continue</text><text class="terminal-730768044-r3" x="634.4" y="556.8" textLength="61" clip-path="url(#terminal-730768044-line-22)">&#160;&#160;·&#160;&#160;</text><text class="terminal-730768044-r8" x="695.4" y="556.8" textLength="85.4" clip-path="url(#terminal-730768044-line-22)">Explain</text><text class="terminal-730768044-r3" x="780.8" y="556.8" textLength="61" clip-path="url(#terminal-730768044-line-22)">&#160;&#160;·&#160;&#160;</text><text class="terminal-730768044-r8" x="841.8" y="556.8" textLength="73.2" clip-path="url(#terminal-730768044-line-22)">Export</text><text class="terminal-730768044-r3" x="1159" y="556.8" textLength="12.2" clip-path="url(#terminal-730768044-line-22)">│</text><text class="terminal-730768044-r1" x="1464" y="556.8" textLength="12.2" clip-path="url(#terminal-730768044-line-22)">
</text><text class="terminal-730768044-r3" x="292.8" y="581.2" textLength="12.2" clip-path="url(#terminal-730768044-line-23)">│</text><text class="terminal-730768044-r3" x="1159" y="581.2" textLength="12.2" clip-path="url(#terminal-730768044-line-23)">│</text><text class="terminal-730768044-r1" x="1464" y="581.2" textLength="12.2" clip-path="url(#terminal-730768044-line-23)">
</text><text class="terminal-730768044-r3" x="292.8" y="605.6" textLength="12.2" clip-path="url(#terminal-730768044-line-24)">│</text><text class="terminal-730768044-r3" x="1159" y="605.6" textLength="12.2" clip-path="url(#terminal-730768044-line-24)">│</text><text class="terminal-730768044-r1" x="1464" y="605.6" textLength="12.2" clip-path="url(#terminal-730768044-line-24)">
</text><text class="terminal-730768044-r3" x="292.8" y="630" textLength="12.2" clip-path="url(#terminal-730768044-line-25)">╰</text><text class="terminal-730768044-r3" x="305" y="630" textLength="854" clip-path="url(#terminal-730768044-line-25)">──────────────────────────────────────────────────────────────────────</text><text class="terminal-730768044-r3" x="1159" y="630" textLength="12.2" clip-path="url(#terminal-730768044-line-25)">╯</text><text class="terminal-730768044-r1" x="1464" y="630" textLength="12.2" clip-path="url(#terminal-730768044-line-25)">
</text><text class="terminal-730768044-r1" x="1464" y="654.4" textLength="12.2" clip-path="url(#terminal-730768044-line-26)">
</text><text class="terminal-730768044-r1" x="1464" y="678.8" textLength="12.2" clip-path="url(#terminal-730768044-line-27)">
</text><text class="terminal-730768044-r9" x="292.8" y="703.2" textLength="73.2" clip-path="url(#terminal-730768044-line-28)">Press&#160;</text><text class="terminal-730768044-r5" x="366" y="703.2" textLength="12.2" clip-path="url(#terminal-730768044-line-28)">O</text><text class="terminal-730768044-r9" x="378.2" y="703.2" textLength="158.6" clip-path="url(#terminal-730768044-line-28)">&#160;to&#160;open&#160;&#160;·&#160;&#160;</text><text class="terminal-730768044-r5" x="536.8" y="703.2" textLength="12.2" clip-path="url(#terminal-730768044-line-28)">Q</text><text class="terminal-730768044-r9" x="549" y="703.2" textLength="97.6" clip-path="url(#terminal-730768044-line-28)">&#160;to&#160;quit</text><text class="terminal-730768044-r1" x="1464" y="703.2" textLength="12.2" clip-path="url(#terminal-730768044-line-28)">
</text><text class="terminal-730768044-r1" x="1464" y="727.6" textLength="12.2" clip-path="url(#terminal-730768044-line-29)">
</text><text class="terminal-730768044-r1" x="1464" y="752" textLength="12.2" clip-path="url(#terminal-730768044-line-30)">
</text><text class="terminal-730768044-r1" x="1464" y="776.4" textLength="12.2" clip-path="url(#terminal-730768044-line-31)">
</text><text class="terminal-730768044-r1" x="1464" y="800.8" textLength="12.2" clip-path="url(#terminal-730768044-line-32)">
</text><text class="terminal-730768044-r1" x="1464" y="825.2" textLength="12.2" clip-path="url(#terminal-730768044-line-33)">
</text><text class="terminal-730768044-r1" x="1464" y="849.6" textLength="12.2" clip-path="url(#terminal-730768044-line-34)">
</text><text class="terminal-730768044-r1" x="1464" y="874" textLength="12.2" clip-path="url(#terminal-730768044-line-35)">
</text><text class="terminal-730768044-r1" x="1464" y="898.4" textLength="12.2" clip-path="url(#terminal-730768044-line-36)">
</text><text class="terminal-730768044-r1" x="1464" y="922.8" textLength="12.2" clip-path="url(#terminal-730768044-line-37)">
</text><text class="terminal-730768044-r1" x="1464" y="947.2" textLength="12.2" clip-path="url(#terminal-730768044-line-38)">
</text><text class="terminal-730768044-r1" x="1464" y="971.6" textLength="12.2" clip-path="url(#terminal-730768044-line-39)">
</text><text class="terminal-730768044-r1" x="1464" y="996" textLength="12.2" clip-path="url(#terminal-730768044-line-40)">
</text><text class="terminal-730768044-r1" x="1464" y="1020.4" textLength="12.2" clip-path="url(#terminal-730768044-line-41)">
</text><text class="terminal-730768044-r6" x="0" y="1044.8" textLength="1464" clip-path="url(#terminal-730768044-line-42)">────────────────────────────────────────────────────────────────────────────────────────────────────────────────────────</text><text class="terminal-730768044-r1" x="1464" y="1044.8" textLength="12.2" clip-path="url(#terminal-730768044-line-42)">
</text><text class="terminal-730768044-r10" x="36.6" y="1069.2" textLength="146.4" clip-path="url(#terminal-730768044-line-43)">▔▔▔▔▔▔▔▔▔▔▔▔</text><text class="terminal-730768044-r10" x="195.2" y="1069.2" textLength="146.4" clip-path="url(#terminal-730768044-line-43)">▔▔▔▔▔▔▔▔▔▔▔▔</text><text class="terminal-730768044-r10" x="353.8" y="1069.2" textLength="146.4" clip-path="url(#terminal-730768044-line-43)">▔▔▔▔▔▔▔▔▔▔▔▔</text><text class="terminal-730768044-r10" x="512.4" y="1069.2" textLength="146.4" clip-path="url(#terminal-730768044-line-43)">▔▔▔▔▔▔▔▔▔▔▔▔</text><text class="terminal-730768044-r10" x="671" y="1069.2" textLength="24.4" clip-path="url(#terminal-730768044-line-43)">▔▔</text><text class="terminal-730768044-r11" x="719.8" y="1069.2" textLength="12.2" clip-path="url(#terminal-730768044-line-43)">│</text><text class="terminal-730768044-r12" x="768.6" y="1069.2" textLength="146.4" clip-path="url(#terminal-730768044-line-43)">▔▔▔▔▔▔▔▔▔▔▔▔</text><text class="terminal-730768044-r13" x="927.2" y="1069.2" textLength="146.4" clip-path="url(#terminal-730768044-line-43)">▔▔▔▔▔▔▔▔▔▔▔▔</text><text class="terminal-730768044-r1" x="1464" y="1069.2" textLength="12.2" clip-path="url(#terminal-730768044-line-43)">
</text><text class="terminal-730768044-r14" x="0" y="1093.6" textLength="24.4" clip-path="url(#terminal-730768044-line-44)">&#160;e</text><text class="terminal-730768044-r4" x="36.6" y="1093.6" textLength="97.6" clip-path="url(#terminal-730768044-line-44)">Explain&#160;</text><text class="terminal-730768044-r14" x="134.2" y="1093.6" textLength="36.6" clip-path="url(#terminal-730768044-line-44)">&#160;c&#160;</text><text class="terminal-730768044-r4" x="170.8" y="1093.6" textLength="12.2" clip-path="url(#terminal-730768044-line-44)">C</text><text class="terminal-730768044-r4" x="183" y="1093.6" textLength="12.2" clip-path="url(#terminal-730768044-line-44)">o</text><text class="terminal-730768044-r4" x="195.2" y="1093.6" textLength="36.6" clip-path="url(#terminal-730768044-line-44)">py&#160;</text><text class="terminal-730768044-r14" x="231.8" y="1093.6" textLength="36.6" clip-path="url(#terminal-730768044-line-44)">&#160;l&#160;</text><text class="terminal-730768044-r4" x="268.4" y="1093.6" textLength="73.2" clip-path="url(#terminal-730768044-line-44)">Claude</text><text class="terminal-730768044-r14" x="353.8" y="1093.6" textLength="36.6" clip-path="url(#terminal-730768044-line-44)">&#160;g&#160;</text><text class="terminal-730768044-r4" x="390.4" y="1093.6" textLength="97.6" clip-path="url(#terminal-730768044-line-44)">ChatGPT&#160;</text><text class="terminal-730768044-r14" x="500.2" y="1093.6" textLength="12.2" clip-path="url(#terminal-730768044-line-44)">s</text><text class="terminal-730768044-r4" x="524.6" y="1093.6" textLength="61" clip-path="url(#terminal-730768044-line-44)">Save&#160;</text><text class="terminal-730768044-r14" x="585.6" y="1093.6" textLength="36.6" clip-path="url(#terminal-730768044-line-44)">&#160;o&#160;</text><text class="terminal-730768044-r4" x="622.2" y="1093.6" textLength="36.6" clip-path="url(#terminal-730768044-line-44)">Ope</text><text class="terminal-730768044-r4" x="658.8" y="1093.6" textLength="12.2" clip-path="url(#terminal-730768044-line-44)">n</text><text class="terminal-730768044-r14" x="695.4" y="1093.6" textLength="24.4" clip-path="url(#terminal-730768044-line-44)">q&#160;</text><text class="terminal-730768044-r4" x="719.8" y="1093.6" textLength="36.6" clip-path="url(#terminal-730768044-line-44)">Qui</text><text class="terminal-730768044-r4" x="756.4" y="1093.6" textLength="12.2" clip-path="url(#terminal-730768044-line-44)">t</text><text class="terminal-730768044-r15" x="1317.6" y="1093.6" textLength="12.2" clip-path="url(#terminal-730768044-line-44)">▏</text><text class="terminal-730768044-r14" x="1329.8" y="1093.6" textLength="24.4" clip-path="url(#terminal-730768044-line-44)">^p</text><text class="terminal-730768044-r4" x="1354.2" y="1093.6" textLength="85.4" clip-path="url(#terminal-730768044-line-44)">&#160;palett</text><text class="terminal-730768044-r4" x="1439.6" y="1093.6" textLength="12.2" clip-path="url(#terminal-730768044-line-44)">e</text>
    </g>
    </g>
</svg>
